<?xml version="1.0" encoding="utf-8" ?>
<svg xmlns="http://www.w3.org/2000/svg" xmlns:xlink="http://www.w3.org/1999/xlink" width="48" height="48" viewBox="15.9 15.9 16.2 16.2">
<path fill="#1ADCF4" transform="scale(0.046875 0.046875)" d="M626.362 544.979L626.44 536.953C629.325 539.349 631.748 541.263 633.787 544.439L635.761 546.119C636.66 552.281 634.976 552.582 630.637 556.618C632.164 556.89 633.506 555.922 634.994 555.179C638.638 559.271 631.569 565.223 628.689 567.886C617.15 578.556 606.342 590.059 594.624 600.504C593.596 601.418 590.259 601.095 588.82 601.057C587.603 601.189 586.251 601.173 585.014 601.2C583.492 601.032 580.467 601.114 578.823 601.108C577.493 601.287 576.099 601.203 574.749 601.178C565.328 600.641 551.903 600.87 542.337 600.997L522.246 620.943C549.088 620.637 576.612 621.395 603.176 620.895C607.792 616.914 622.288 601.899 625.898 600.373L627.221 600.494C628.112 601.823 627.92 601.121 627.915 602.643L626.588 603.805C627.803 604.284 628.529 604.645 629.844 604.802C631.207 605.594 631.264 605.481 632 606.833C631.675 609.441 611.253 628.569 607.676 632.033C592.653 631.514 578.045 631.736 563.033 631.749L497.536 631.801C501.843 626.339 511.473 617.452 516.817 612.323C523.335 606.068 532.421 596.185 539.203 590.889C552.519 591.142 566.553 590.924 579.882 590.729C585.408 586.267 592.694 578.664 597.852 573.524L626.362 544.979ZM596.863 625.534C572.624 624.974 548.345 625.746 524.099 625.299C522.485 625.269 519.419 625.855 517.974 626.484C519.185 627.702 524.444 627.72 526.333 627.727L570.532 627.55C575.307 627.559 603.669 627.993 606.905 626.981C604.287 625.389 600.402 625.859 596.863 625.534Z"/><path fill="#1ADCF4" transform="scale(0.046875 0.046875)" d="M634.994 555.179C638.638 559.271 631.569 565.223 628.689 567.886C617.15 578.556 606.342 590.059 594.624 600.504C593.596 601.418 590.259 601.095 588.82 601.057C587.603 601.189 586.251 601.173 585.014 601.2C600.285 588.004 615.485 570.362 630.637 556.618C632.164 556.89 633.506 555.922 634.994 555.179Z"/><path transform="scale(0.046875 0.046875)" d="M630.637 556.618C632.164 556.89 633.506 555.922 634.994 555.179C619.523 570.379 604.391 586.033 588.82 601.057C587.603 601.189 586.251 601.173 585.014 601.2C600.285 588.004 615.485 570.362 630.637 556.618Z"/><path fill="#1ADCF4" transform="scale(0.046875 0.046875)" d="M635.761 546.119C636.66 552.281 634.976 552.582 630.637 556.618C615.485 570.362 600.285 588.004 585.014 601.2C583.492 601.032 580.467 601.114 578.823 601.108C594.239 587.001 608.765 571.891 623.676 557.258C627.368 553.635 631.587 549.07 635.761 546.119Z"/><path transform="scale(0.046875 0.046875)" d="M633.787 544.439L635.761 546.119C631.587 549.07 627.368 553.635 623.676 557.258C608.765 571.891 594.239 587.001 578.823 601.108C577.493 601.287 576.099 601.203 574.749 601.178C593.831 585.287 615.328 562.097 633.787 544.439Z"/><path transform="scale(0.046875 0.046875)" d="M626.588 603.805C627.803 604.284 628.529 604.645 629.844 604.802C626.724 607.403 609.185 624.002 606.905 626.981C604.287 625.389 600.402 625.859 596.863 625.534C599.218 625.368 602.528 625.467 604.957 625.466C609.136 621.762 623.862 608.026 626.588 603.805Z"/><path fill="#1ADCF4" transform="scale(0.046875 0.046875)" d="M630.431 416.419C634.943 419.841 640.625 425.669 644.81 429.752C652.404 437.243 660.065 444.664 667.795 452.015C668.155 464.346 667.855 478.397 667.856 490.86L667.691 572.591C658.955 580.988 650.718 589.895 642.017 598.329C639.809 600.468 637.632 602.648 635.066 604.362C633.241 603.917 633.45 603.565 631.896 601.867L627.685 597.585C637.566 587.578 648.131 578.286 657.997 567.85C657.467 556.415 657.844 542.072 657.8 530.391L657.495 456.867C648.401 446.174 631.836 432.282 621.236 421.556C624.366 420.121 627.452 418.186 630.431 416.419Z"/><path fill="#1ADCF4" transform="scale(0.046875 0.046875)" d="M521.785 542.335L522.396 542.718C523.718 545.07 523.109 575.245 523.096 579.894C519.225 584.248 511.894 591.004 507.442 595.418C495.214 607.678 482.783 619.734 470.155 631.581L416.434 631.481C411.013 626.745 378.307 595.529 376.954 591.558C376.859 587.68 376.992 583.394 377.032 579.485C382.176 583.596 386.415 588.154 391.159 592.677C400.984 602.046 410.518 612.218 420.467 621.405L466.935 621.428C483.237 606 504.226 585.711 518.931 569.658C518.518 562.093 518.751 553.018 518.792 545.332L521.785 542.335Z"/><path fill="#1ADCF4" transform="scale(0.046875 0.046875)" d="M534.52 423.127C551.212 421.889 576.597 422.565 593.984 422.545C597.126 424.607 607.833 435.244 610.796 438.273C618.617 446.268 628.352 455.024 635.831 463.218C636.043 486.692 636.084 510.166 635.954 533.64C633.144 530.443 629.629 527.347 626.48 524.434C626.078 519.604 626.248 511.51 626.21 506.502L626.153 468.276C615.462 457.202 600.769 444.204 591.18 432.76L559.061 433.007C555.131 433.036 545.066 433.776 542.247 431.781C541.177 429.971 536.325 425.12 534.52 423.127Z"/><path fill="#1ADCF4" transform="scale(0.046875 0.046875)" d="M355.949 390.652C362.115 395.953 368.433 402.794 374.397 408.511C381.994 415.793 390.956 423.585 397.893 431.38C398.205 449.926 397.626 469.297 398.159 487.605C394.684 491.092 391.169 494.316 387.556 497.648C388.134 477.393 386.847 455.011 387.947 435.377C381.577 428.717 372.958 421.254 365.975 415.017C366.323 427.051 366.471 439.09 366.419 451.129C364.484 450.347 358.281 444.03 356.367 442.197C354.884 436.566 355.772 398.616 355.949 390.652Z"/><path fill="#1ADCF4" transform="scale(0.046875 0.046875)" d="M487.437 489.906C497.682 479.793 508.723 470.279 518.826 459.971C522.01 456.722 526.281 452.333 529.795 449.614C530.29 472.939 529.686 498.606 529.68 522.132C526.502 525.519 522.478 529.125 519.055 532.342C518.232 515.234 518.972 491.561 518.963 473.752C512.092 480.139 504.43 487.548 498.306 494.559C498.206 498.357 498.242 502.322 498.219 506.134C498.177 510.413 498.188 514.799 498.082 519.066L487.894 509.761C487.094 507.404 487.407 493.24 487.437 489.906Z"/><path fill="#1ADCF4" transform="scale(0.046875 0.046875)" d="M487.487 392.459L606.632 392.48C609.637 395.142 627.735 412.154 628.087 414.553C626.927 415.519 626.76 415.847 625.284 416.137C618.467 411.654 611.637 402.34 604.273 397.196C578.267 396.282 548.221 397.096 521.875 397.217C511.871 397.251 501.568 397.413 491.587 397.243C491.873 416.627 491.851 436.015 491.521 455.398C494.938 451.644 514.806 431.83 518.41 429.984C519.928 430.282 520.869 431.492 522.048 432.609C512.322 440.658 496.646 456.428 487.044 465.625C487.913 441.763 487.504 416.426 487.487 392.459Z"/><path fill="#1ADCF4" transform="scale(0.046875 0.046875)" d="M524.872 398.746C551.124 398.694 577.721 398.488 603.952 398.782C610.598 404.791 617.102 411.261 623.534 417.521C622.277 418.436 621.02 419.394 619.772 420.327C614.136 414.61 608.387 409.005 602.528 403.516L529.75 403.538L497.968 403.608L497.814 440.232C501.909 436.652 510.059 427.558 513.984 425.548C515.403 426.08 514.877 425.806 516.005 426.975C515.339 430.624 497.449 446.968 493.757 450.559C493.222 434.079 493.788 415.592 493.618 398.857C503.929 399 514.541 398.808 524.872 398.746Z"/><path fill="#1ADCF4" transform="scale(0.046875 0.046875)" d="M487.481 512.276C490.322 514.181 495.806 519.642 497.525 520.479C498.839 523.826 497.977 555.177 498.079 561.461C484.135 574.806 470.423 588.676 456.443 601.877C455.458 600.878 454.22 599.426 453.018 598.829C465.949 587.241 481.02 571.652 493.546 559.284C493.584 552.001 494.296 528.565 492.809 523.005L492.405 523.161C490.997 528.994 491.53 551.305 491.677 558.173C479.549 570.846 463.23 585.21 451.999 597.691C450.689 595.886 447.371 593.229 447.545 591.05C448.743 590.555 449.184 590.954 450.744 591.294C453.832 590.115 483.694 560.162 487.693 556.007C486.834 542.579 487.852 526.196 487.481 512.276Z"/><path fill="#1ADCF4" transform="scale(0.046875 0.046875)" d="M356.02 453.769C357.527 454.607 358.878 456.218 360.104 457.505C360.557 467.818 360.308 480.483 360.337 490.89L360.235 571.435C364.239 575.088 368.562 578.732 371.988 582.933C374.085 585.505 374.154 586.061 374.11 589.395L373.754 589.703C372.182 589.389 358.291 575.72 355.97 573.509C355.778 567.157 355.737 560.575 355.818 554.219C356.245 520.787 355.423 487.181 356.02 453.769Z"/><path fill="#1ADCF4" transform="scale(0.046875 0.046875)" d="M397.318 500.902C399.089 503.103 398.428 550.368 398.414 556.88C404.463 561.108 439.39 595.008 442.845 600.678C442.253 601.855 441.898 601.618 440.22 602.237C436.005 599.781 423.015 586.57 418.71 582.335C410.669 574.4 402.556 566.538 394.372 558.752C394.28 547.816 394.252 536.88 394.288 525.943C394.279 519.55 394.131 513.143 394.225 506.754C394.276 503.28 394.648 503.365 397.318 500.902Z"/><path fill="#1ADCF4" transform="scale(0.046875 0.046875)" d="M362.479 460.19C364.101 461.114 365.335 462.884 366.556 464.356C366.882 498.975 366.524 534.037 366.442 568.688C368.226 570.124 369.92 571.668 371.514 573.312C374.287 576.167 375.054 577.908 375.018 581.665C370.804 579.61 365.895 574.102 362.505 570.591C361.718 535.01 362.318 495.962 362.479 460.19Z"/><path fill="#1ADCF4" transform="scale(0.046875 0.046875)" d="M390.912 507.321C391.027 507.438 391.819 508.169 391.825 508.252C392.691 518.776 392.111 550.259 392.057 558.857C400.629 567.382 409.281 575.826 418.01 584.19C422.89 588.89 430.018 595.438 434.222 600.497L434.065 601.184L431.956 602.118C425.122 599.385 394.634 567.426 388.042 560.761C388.059 544.007 387.913 527.252 387.603 510.501L390.912 507.321Z"/><path transform="scale(0.046875 0.046875)" d="M491.677 558.173C491.53 551.305 490.997 528.994 492.405 523.161L492.809 523.005C494.296 528.565 493.584 552.001 493.546 559.284C481.02 571.652 465.949 587.241 453.018 598.829L451.999 597.691C463.23 585.21 479.549 570.846 491.677 558.173Z"/><path fill="#1ADCF4" transform="scale(0.046875 0.046875)" d="M528.411 535.264L529.012 535.591C530.051 538.594 529.549 567.792 529.523 573.13C528.409 574.509 527.15 575.867 525.966 577.196L525.519 577.044C524.374 574.946 524.984 543.706 525.048 539.376C526.1 537.998 527.3 536.605 528.411 535.264Z"/><path fill="#1ADCF4" fill-opacity="0.98823529" transform="scale(0.046875 0.046875)" d="M528.882 525.915C533.523 530.91 522.743 539.211 519.459 542.518C518.307 541.164 518.683 537.642 518.778 535.824C522.002 532.485 525.539 529.157 528.882 525.915Z"/><path fill="#1ADCF4" transform="scale(0.046875 0.046875)" d="M397.767 491.335C400.079 498.083 392.67 502.866 388.065 507.01C383.547 501.929 394.438 494.164 397.767 491.335Z"/><path fill="#1ADCF4" transform="scale(0.046875 0.046875)" d="M436.581 590.342L443.353 590.525C445.629 593.223 451.506 599.134 452.632 601.77L447.248 601.575C443.778 598.16 439.588 594.077 436.581 590.342Z"/><path fill="#1ADCF4" transform="scale(0.046875 0.046875)" d="M524.052 422.651C529.118 422.678 530.185 421.894 533.891 424.962C536.188 427.696 539.223 430.534 541.2 433.01C535.751 433.147 534.68 432.894 530.488 428.845C528.372 426.802 526.189 424.679 524.052 422.651Z"/><path fill="#1ADCF4" transform="scale(0.046875 0.046875)" d="M356.23 444.274C358.929 446.818 361.572 449.422 364.157 452.084C367.213 455.552 366.599 457.229 366.563 462.06C363.849 458.7 361.287 456.169 358.52 452.944C355.575 449.51 355.738 448.475 356.23 444.274Z"/><path fill="#1ADCF4" transform="scale(0.046875 0.046875)" d="M626.198 528.599C628.751 527.962 632.841 533.983 635.191 535.028C636.421 537.324 636.084 540.385 636.038 543.009C630.648 538.35 626.238 536.145 626.198 528.599Z"/><path fill="#1ADCF4" transform="scale(0.046875 0.046875)" d="M516.302 422.352L516.886 422.357C523.32 422.471 527.227 428.179 531.868 432.969L525.15 433.084C522.142 429.597 518.987 426.082 516.302 422.352Z"/><path transform="scale(0.046875 0.046875)" d="M498.219 506.134C499.475 508.004 498.737 515.877 498.453 518.44C498.363 519.247 497.717 519.387 497.525 520.479C495.806 519.642 490.322 514.181 487.481 512.276C487.209 510.764 487.293 511.475 487.894 509.761L498.082 519.066C498.188 514.799 498.177 510.413 498.219 506.134Z"/><path transform="scale(0.046875 0.046875)" d="M626.48 524.434C629.629 527.347 633.144 530.443 635.954 533.64L635.191 535.028C632.841 533.983 628.751 527.962 626.198 528.599C625.677 527.514 626.24 525.921 626.48 524.434Z"/><path transform="scale(0.046875 0.046875)" d="M356.367 442.197C358.281 444.03 364.484 450.347 366.419 451.129C365.351 451.888 365.44 451.896 364.157 452.084C361.572 449.422 358.929 446.818 356.23 444.274L356.367 442.197Z"/><path transform="scale(0.046875 0.046875)" d="M533.891 424.962C534.352 424.169 534.287 424.047 534.52 423.127C536.325 425.12 541.177 429.971 542.247 431.781L541.2 433.01C539.223 430.534 536.188 427.696 533.891 424.962Z"/></svg>
