<svg xmlns="http://www.w3.org/2000/svg" xmlns:xlink="http://www.w3.org/1999/xlink" width="1024" height="1024" viewBox="287 246 450 450">
1024"><path fill="#0F161D" d="M365.243 325.279C381.441 309.127 406.058 293.09 426.99 284.09C465.217 267.225 507.616 262.187 548.731 269.625C555.882 270.938 563.96 272.115 570.623 274.772C598.462 283.477 630.922 299.236 651.873 320.102C656.538 323.125 664.153 331.107 668.076 335.361C693.158 362.564 708.486 392.265 717.303 428.067L718.323 431.908C723.952 454.196 724.285 483.725 720.549 506.309C719.259 514.107 716.959 522.223 715.857 529.173C702.37 569.428 690.391 593.025 659.588 623.243L655.895 626.915C648.352 634.221 619.442 655.925 610.505 658.392C596.937 666.442 582.38 672.027 567.135 675.943C563.491 677.11 558.391 678.11 554.601 678.873C498.415 690.191 437.919 678.304 390.471 645.532C354.351 620.097 327.082 584.011 312.477 542.317C309.733 534.466 307.663 529.148 306.171 520.919C305.244 518.407 303.925 509.387 303.499 506.262C301.346 491.444 300.878 476.43 302.106 461.507C302.984 451.816 304.577 442.88 305.619 433.391C313.475 395.489 332.232 360.418 358.453 332.098C360.661 329.713 362.806 327.443 365.243 325.279Z"/><path fill="#142D35" d="M365.243 325.279C381.441 309.127 406.058 293.09 426.99 284.09C465.217 267.225 507.616 262.187 548.731 269.625C555.882 270.938 563.96 272.115 570.623 274.772C598.462 283.477 630.922 299.236 651.873 320.102C656.538 323.125 664.153 331.107 668.076 335.361C693.158 362.564 708.486 392.265 717.303 428.067L716.176 429.579C714.913 430.439 713.958 430.339 712.423 430.447L711.274 430.546C707.378 431.809 698.412 433.73 694.417 434.232C693.508 432.429 690.528 422.176 689.623 419.437C687.127 411.873 684.704 406.157 681.384 398.915C678.266 387.535 646.945 342.602 637.325 340.052C636.409 340.143 636.023 340.093 635.135 339.848L634.136 340.582C631.606 341.056 625.632 335.288 622.476 333.151L621.959 332.805C607.375 320.3 582.351 310.018 564.346 303.517C562.109 302.709 550.879 300.409 550.196 299.189C552.22 298.251 553.676 300.283 555.803 299.349L555.052 298.253C557.48 291.855 559.865 285.441 562.208 279.011C534.743 271.812 506.048 270.623 478.081 275.525C475.09 276.021 466.864 277.082 464.635 278.709C464.416 280.396 467.527 294.101 468.124 296.27C474.235 295.093 498.34 290.46 503.685 291.755C502.087 292.413 501.807 292.187 501.132 293.368C502.427 293.442 503.59 293.519 504.885 293.644C503.009 295.556 496.786 294.804 494.253 295.416C485.196 297.604 474.292 298.315 465.512 300.979C463.573 302.324 462.232 302.55 459.996 303.198C449.376 305.907 437.256 311.1 427.299 315.766C424.027 317.299 413.17 324.031 411.155 324.652L410.696 325.289C409.659 326.327 400.214 333.272 399.441 333.476C394.949 334.662 375.387 356.713 373.299 357.337L371.847 357.145L370.621 358.229L371.487 359.925C368.545 364.783 359.515 374.97 357.739 380.082L356.76 379.446C352.552 382.703 352.281 387.219 349.827 387.404L348.224 386.105C349.442 383.891 349.694 383.553 350.295 381.155C350.482 380.7 353.121 376.577 353.59 375.816C360.571 364.453 368.974 354.029 378.595 344.795C379.79 343.952 380.773 342.931 381.847 341.923C379.717 340.134 370.075 331.846 369.664 329.628L368.652 329.107C367.401 328.628 366.153 327.278 365.731 326.005L365.243 325.279Z"/><path fill="#070C10" d="M637.325 340.052C638.892 336.62 646.105 328.705 648.744 325.392C653.538 329.482 657.746 334.063 662.115 338.583C687.536 364.878 702.797 395.172 711.274 430.546C707.378 431.809 698.412 433.73 694.417 434.232C693.508 432.429 690.528 422.176 689.623 419.437C687.127 411.873 684.704 406.157 681.384 398.915C678.266 387.535 646.945 342.602 637.325 340.052Z"/><path fill="#070C10" d="M369.664 329.628C396.362 305.342 427.175 286.234 462.862 278.524C464.206 284.588 465.484 290.485 467.112 296.483C452.952 301.005 419.965 312.03 408.901 321.292C397.931 327.415 390.858 333.442 381.847 341.923C379.717 340.134 370.075 331.846 369.664 329.628Z"/><path fill="#0F161D" d="M565.784 279.755C590.9 288.283 613.908 297.614 634.706 314.194C637.416 316.355 641.221 319.378 644.056 321.18L644.906 321.712L645.466 322.514C643.661 324.75 637.397 333.041 635.886 332.601C625.789 328.316 616.553 317.824 607.658 311.935C593.048 302.261 578.842 297.517 562.075 293.195C561.598 290.886 564.843 282.486 565.784 279.755Z"/><path fill="#070C10" d="M651.873 320.102C656.538 323.125 664.153 331.107 668.076 335.361C693.158 362.564 708.486 392.265 717.303 428.067L716.176 429.579C714.913 430.439 713.958 430.339 712.423 430.447C711.682 427.107 710.856 423.787 709.948 420.489C701.681 390.125 684.946 360.513 663.164 337.982C659.545 334.239 653.789 327.375 649.536 324.938C650.01 323.745 651.123 322.279 651.886 321.16L651.873 320.102Z"/><path fill="#142D35" d="M651.873 320.102C656.538 323.125 664.153 331.107 668.076 335.361C693.158 362.564 708.486 392.265 717.303 428.067L716.176 429.579C714.811 422.14 711.784 413.068 709.296 405.839C697.268 370.886 678.691 345.92 651.886 321.16L651.873 320.102Z"/><path fill="#0F161D" d="M570.623 274.772C598.462 283.477 630.922 299.236 651.873 320.102L651.886 321.16C651.123 322.279 650.01 323.745 649.536 324.938C647.206 324.692 647.307 324.208 645.466 322.514L644.906 321.712L646.643 321.441C644.415 320.486 633.956 312.002 631.322 310.061C625.097 305.439 618.546 301.272 611.721 297.593C602.685 292.698 594.276 289.1 584.831 285.094C580.224 283.14 569.214 280.752 566.246 278.096L566.197 277.1C568.19 275.072 568.642 275.59 570.977 276.275L570.623 274.772Z"/><path fill="#142D35" d="M570.623 274.772C598.462 283.477 630.922 299.236 651.873 320.102L651.886 321.16C651.123 322.279 650.01 323.745 649.536 324.938C647.206 324.692 647.307 324.208 645.466 322.514L644.906 321.712L646.643 321.441L648.263 319.466L648.157 318.807C644.024 316.286 645.106 315.911 641.903 313.142C639.507 311.07 635.957 308.54 633.362 306.668C616.524 294.531 591.067 281.543 570.977 276.275L570.623 274.772Z"/><path fill="#152B37" d="M408.901 321.292C413.199 320.11 417.428 316.662 421.036 315.19C427.728 312.461 451.887 300.43 457.322 300.677L456.385 301.378L457.091 301.656C452.416 303.807 445.798 305.495 441.589 306.797C436.601 308.339 409.816 321.482 407.978 324.751C409.155 325.443 409.146 325.233 410.696 325.289C409.659 326.327 400.214 333.272 399.441 333.476C394.949 334.662 375.387 356.713 373.299 357.337L371.847 357.145L370.621 358.229L371.487 359.925C368.545 364.783 359.515 374.97 357.739 380.082L356.76 379.446C352.552 382.703 352.281 387.219 349.827 387.404L348.224 386.105C349.442 383.891 349.694 383.553 350.295 381.155C350.482 380.7 353.121 376.577 353.59 375.816C360.571 364.453 368.974 354.029 378.595 344.795C379.79 343.952 380.773 342.931 381.847 341.923C390.858 333.442 397.931 327.415 408.901 321.292Z"/><path fill="#070C10" d="M365.731 326.005L366.247 325.606C372.281 320.88 377.709 315.434 384.014 310.565C403.265 295.791 424.96 284.512 448.111 277.239C450.951 276.373 459.596 273.382 462.015 274.206C462.186 275.587 462.427 276.049 461.754 277.224C457.423 279.333 444.807 282.42 438.634 284.827C412.588 294.775 388.795 309.83 368.652 329.107C367.401 328.628 366.153 327.278 365.731 326.005Z"/><path fill="#2CCBDB" d="M555.803 299.349C566.375 294.012 630.919 330.548 634.136 340.582C631.606 341.056 625.632 335.288 622.476 333.151L621.959 332.805C607.375 320.3 582.351 310.018 564.346 303.517C562.109 302.709 550.879 300.409 550.196 299.189C552.22 298.251 553.676 300.283 555.803 299.349Z"/><path fill="#27839C" d="M459.996 303.198L460.449 301.9C462.191 300.765 463.324 301.006 465.512 300.979C463.573 302.324 462.232 302.55 459.996 303.198Z"/><path fill="#0F161D" d="M507.612 267.765C521.994 266.854 536.756 268.793 550.865 271.361C554.006 271.933 560.521 272.615 562.82 274.549C562.889 276.512 563.172 275.697 562.264 277.165C559.077 277.106 548.699 274.771 544.898 274.113C536.451 272.7 527.93 271.764 519.377 271.31C504.544 270.059 487.816 272.917 473.125 275.122C470.969 275.446 466.062 276.959 464.377 276.545C463.078 275.239 463.409 275.993 463.231 274.263L463.916 273.421C467.546 272.002 469.478 272.417 472.873 271.672C484.734 269.067 495.503 268.204 507.612 267.765Z"/><path fill="#142D35" d="M716.176 429.579L717.303 428.067L718.323 431.908C723.952 454.196 724.285 483.725 720.549 506.309C719.259 514.107 716.959 522.223 715.857 529.173C702.37 569.428 690.391 593.025 659.588 623.243L655.895 626.915C648.352 634.221 619.442 655.925 610.505 658.392C596.937 666.442 582.38 672.027 567.135 675.943L563.862 675.535L564.237 674.836C564.438 672.414 563.931 671.881 562.25 670.376C562.586 668.316 558.52 655.496 557.686 652.693C535.028 657.705 527.252 657.981 504.307 657.873C499.21 656.378 489.451 655.824 483.784 655.298C486.304 654.326 492.51 654.986 495.795 654.813L496.816 653.598C498.703 652.615 505.782 653.164 507.778 653.725L509.316 654.349C512.609 653.392 513.094 653.476 516.171 654.76L517.096 655.152C518.248 654.604 517.718 654.909 518.523 653.467C519.75 652.995 529.001 652.884 530.432 652.98L534.518 652.239C535.107 652.013 554.513 648.345 555.851 648.14C561.588 646.951 567.856 645.101 573.427 643.223L574.423 643.208C576.327 641.97 581.77 640.044 584.282 639.013C589.467 636.885 593.94 634.701 598.98 632.31L599.421 632.276C602.397 629.832 612.536 624.246 616.22 621.663C621.009 618.304 625.043 614.384 629.797 611.03C630.701 611.612 630.715 611.602 631.745 611.931L632.649 611.102C632.557 610.381 632.443 609.73 632.263 609.032C633.088 607.784 632.978 607.756 634.317 607.158C635.186 607.995 634.859 607.823 635.905 608.327L636.819 607.236C636.474 605.878 636.482 606.255 636.495 604.885C637.945 603.433 642.565 598.409 644.097 598.08L645.188 598.91L645.891 598.057C645.092 597.477 645.452 597.815 644.816 597.038C645.513 594.707 646.767 594.469 648.863 593.504L649.498 593.216C650.261 590.073 650.655 589.089 653.829 589.28L654.452 588.468C653.687 587.968 654.024 588.273 653.447 587.548C655.506 583.572 661.442 577.022 664.453 572.312C676.41 553.611 684.351 536.71 689.53 515.147C690.786 507.249 693.348 500.157 693.42 491.918C693.38 490.986 694.218 472.167 694.101 472.534C694.146 472.212 694.267 471.439 694.219 471.23C692.847 467 696.638 461.844 697.051 458.253C697.298 456.105 695.836 450.215 695.816 447.143L696.771 446.272C696.148 442.956 695.613 440.272 694.745 437.014L693.091 435.591L693.668 434.441L694.417 434.232C698.412 433.73 707.378 431.809 711.274 430.546L712.423 430.447C713.958 430.339 714.913 430.439 716.176 429.579Z"/><path fill="#0F161D" d="M716.176 429.579L717.303 428.067L718.323 431.908L717.127 432.36C715.28 432.843 714.446 432.703 713.369 433.866C714.162 441.936 716.551 450.675 716.631 458.508L716.054 459.003C716.714 483.946 716.764 502.861 709.401 527.569C704.644 526.358 697.143 524.685 692.821 522.862C693.168 521.456 693.75 518.735 694.235 517.492C691.601 514.959 692.726 515.469 689.53 515.147C690.786 507.249 693.348 500.157 693.42 491.918C693.38 490.986 694.218 472.167 694.101 472.534C694.146 472.212 694.267 471.439 694.219 471.23C692.847 467 696.638 461.844 697.051 458.253C697.298 456.105 695.836 450.215 695.816 447.143L696.771 446.272C696.148 442.956 695.613 440.272 694.745 437.014L693.091 435.591L693.668 434.441L694.417 434.232C698.412 433.73 707.378 431.809 711.274 430.546L712.423 430.447C713.958 430.339 714.913 430.439 716.176 429.579Z"/><path fill="#152B37" d="M696.771 446.272C700.64 472.255 699.685 492.002 694.235 517.492C691.601 514.959 692.726 515.469 689.53 515.147C690.786 507.249 693.348 500.157 693.42 491.918C693.38 490.986 694.218 472.167 694.101 472.534C694.146 472.212 694.267 471.439 694.219 471.23C692.847 467 696.638 461.844 697.051 458.253C697.298 456.105 695.836 450.215 695.816 447.143L696.771 446.272Z"/><path fill="#142D35" d="M693.42 491.918C693.38 490.986 694.218 472.167 694.101 472.534L694.414 474.469C695.408 475.076 695.427 475.133 696.535 475.444C697.777 482.793 695.742 487.936 695.774 495.091L695.26 495.68C694.479 494.438 694.653 494.246 694.479 492.689L693.42 491.918Z"/><path fill="#142D35" d="M716.176 429.579L717.303 428.067L718.323 431.908L717.127 432.36C715.28 432.843 714.446 432.703 713.369 433.866C714.162 441.936 716.551 450.675 716.631 458.508L716.054 459.003C714.985 449.831 713.936 442.189 711.843 433.199C706.701 434.655 699.221 435.488 694.745 437.014L693.091 435.591L693.668 434.441L694.417 434.232C698.412 433.73 707.378 431.809 711.274 430.546L712.423 430.447C713.958 430.339 714.913 430.439 716.176 429.579Z"/><path fill="#0F161D" d="M639.005 608.738C642.259 612.045 649.443 618.538 651.817 621.894L650.3 623.54C627.525 644.409 595.978 660.897 566.439 669.322C564.827 663.498 563.22 657.957 562.056 652.018C594.892 641.171 613.208 630.968 639.005 608.738Z"/><path fill="#0F161D" d="M642.077 605.515C651.647 596.606 659.259 586.924 667.225 576.627C671.872 571.5 673.945 569.171 678.319 563.346C681.108 559.632 693.78 529.811 694.538 527.99C694.901 527.119 706.045 529.993 708.236 530.56C697.266 565.182 681.346 593.292 655.311 619.011L654.984 618.98C651.045 614.977 645.572 609.674 642.077 605.515Z"/><path fill="#0F161D" d="M717.127 432.36L718.323 431.908C723.952 454.196 724.285 483.725 720.549 506.309C719.259 514.107 716.959 522.223 715.857 529.173L714.951 528.645C708.369 530.172 711.561 523.372 712.267 519.934C715.558 503.915 721.005 473.847 716.631 458.508C716.551 450.675 714.162 441.936 713.369 433.866C714.446 432.703 715.28 432.843 717.127 432.36Z"/><path fill="#152B37" d="M717.127 432.36L718.323 431.908C723.952 454.196 724.285 483.725 720.549 506.309C719.259 514.107 716.959 522.223 715.857 529.173L714.951 528.645C715.18 526.413 715.946 523.239 716.479 520.984C723.291 492.136 724.26 461.28 717.127 432.36Z"/><defs><linearGradient id="gradient_0" gradientUnits="userSpaceOnUse" x1="609.24451" y1="644.86957" x2="615.87469" y2="655.40955"><stop offset="0" stop-color="#100D13"/><stop offset="1" stop-color="#11272E"/></linearGradient></defs><path fill="url(#gradient_0)" d="M651.136 624.007C653.217 623.041 652.21 623.1 654.227 623.511C655.566 624.917 655.455 625.066 655.895 626.915C648.352 634.221 619.442 655.925 610.505 658.392C605.856 658.807 600.689 662.635 596.338 664.256C590.106 666.579 575.217 673.923 569.296 673.465C567.732 672.572 568.251 673.198 567.624 671.576C568.463 669.221 572.231 669.357 574.574 668.5C600.949 658.858 630.79 643.793 651.136 624.007Z"/><path fill="#0F161D" d="M709.263 530.76L713.609 532.385C699.876 572.12 688.302 592.547 658.429 622.596L656.135 620.115L656.536 619.592C660.784 614.113 667.81 607.29 672.609 601.287C689.382 580.44 701.841 556.466 709.263 530.76Z"/><path fill="#27839C" d="M598.98 632.31C597.663 635.034 576.925 644.616 574.423 643.208C576.327 641.97 581.77 640.044 584.282 639.013C589.467 636.885 593.94 634.701 598.98 632.31Z"/><path fill="#1C4550" d="M654.984 618.98L655.311 619.011L656.135 620.115L658.429 622.596L659.588 623.243L655.895 626.915C655.455 625.066 655.566 624.917 654.227 623.511C652.21 623.1 653.217 623.041 651.136 624.007L650.3 623.54L651.817 621.894L654.984 618.98Z"/><path fill="#3699B0" d="M573.427 643.223L573.555 644.184C570.805 646.277 560.424 649.099 556.771 649.25C555.889 648.653 556.169 649.043 555.851 648.14C561.588 646.951 567.856 645.101 573.427 643.223Z"/><path fill="#3699B0" d="M534.518 652.239L534.619 653.247C532.945 654.042 532.947 653.936 531.172 653.777L530.432 652.98L534.518 652.239Z"/><path fill="#3699B0" d="M507.778 653.725L509.316 654.349C507.729 655.216 506.563 655.163 504.896 654.594C505.618 653.75 506.326 653.946 507.778 653.725Z"/><path fill="#152B37" d="M306.171 520.919L307.094 520.326C307.668 523.202 308.12 525.616 308.985 528.425C310.425 527.966 312.209 527.34 313.649 527.058L314.258 526.821C319.933 525.508 325.626 523.787 331.233 522.179C331.965 523.859 332.448 525.012 333.022 526.747C334.056 530.275 335.222 533.497 336.463 536.958C337.156 540.644 339.544 545.424 341.047 548.959C349.807 569.569 362.937 588.109 378.698 603.955C381.583 606.855 388.3 614.12 391.971 615.093C393.427 615.046 393.985 615.301 394.811 614.532L394.977 613.516L395.709 613.367C396.99 614.242 404.747 619.236 405.102 619.921C410.126 622.999 414.804 625.919 420.039 628.642C434.993 636.462 447.74 642.466 464.056 647.134C465.853 647.648 469.651 649.036 471.333 649.092C473.116 649.468 477.482 650.293 478.879 650.706L483.149 651.698C484.29 651.596 491.611 652.242 492.395 652.643C493.688 652.913 494.696 653.086 495.961 653.492L496.816 653.598L495.795 654.813C492.51 654.986 486.304 654.326 483.784 655.298C489.451 655.824 499.21 656.378 504.307 657.873C527.252 657.981 535.028 657.705 557.686 652.693C558.52 655.496 562.586 668.316 562.25 670.376C563.931 671.881 564.438 672.414 564.237 674.836L563.862 675.535L567.135 675.943C563.491 677.11 558.391 678.11 554.601 678.873C498.415 690.191 437.919 678.304 390.471 645.532C354.351 620.097 327.082 584.011 312.477 542.317C309.733 534.466 307.663 529.148 306.171 520.919Z"/><path fill="#070C10" d="M315.552 531.317C321.227 529.274 327.074 527.745 333.022 526.747C334.056 530.275 335.222 533.497 336.463 536.958C337.156 540.644 339.544 545.424 341.047 548.959C349.807 569.569 362.937 588.109 378.698 603.955C381.583 606.855 388.3 614.12 391.971 615.093C389.43 618.952 383.56 625.989 380.542 629.567C346.179 601.08 329.72 572.895 315.552 531.317Z"/><path fill="#0F161D" d="M504.307 657.873C527.252 657.981 535.028 657.705 557.686 652.693C558.52 655.496 562.586 668.316 562.25 670.376C525.384 678 502.677 678.638 465.358 671.083C467.261 666.737 469.725 659.16 471.45 654.394C481.674 654.95 493.244 657.716 504.307 657.873Z"/><path fill="#0F161D" d="M563.862 675.535C533.719 681.51 504.486 685.006 474.028 678.349C470.538 677.587 464.004 678.493 464.297 673.376C466.149 672.161 482.53 675.365 486.608 675.873C505.425 678.217 519.721 678.346 538.625 675.903C544.219 675.18 558.74 671.938 562.62 671.978C563.998 672.852 563.596 672.792 564.237 674.836L563.862 675.535Z"/><path fill="#2CCBDB" d="M420.039 628.642C434.993 636.462 447.74 642.466 464.056 647.134C465.853 647.648 469.651 649.036 471.333 649.092L468.379 651.257C454.49 648.846 431.167 638.686 418.831 631.339C419.11 630.569 419.682 629.423 420.039 628.642Z"/><path fill="#2CCBDB" d="M405.102 619.921C410.126 622.999 414.804 625.919 420.039 628.642C419.682 629.423 419.11 630.569 418.831 631.339C416.094 630.466 405.137 623.401 403.943 620.912L405.102 619.921Z"/><path fill="#3699B0" d="M478.879 650.706L483.149 651.698C481.558 652.712 480.103 652.64 478.564 651.713L478.879 650.706Z"/><path fill="#3699B0" d="M492.395 652.643C493.688 652.913 494.696 653.086 495.961 653.492C494.547 654.053 492.973 654.262 491.724 653.356L492.395 652.643Z"/><path fill="#0F161D" d="M396.77 617.029L397.53 617.482L397.413 618.556C398.58 620.272 404.739 628.873 406.051 629.586C412.325 633 419.627 637.846 426.118 640.752C429.121 642.096 433.359 643.004 436.571 644.499C446.521 649.131 457.404 655.457 468.741 654.12C467.042 659.497 465.527 665.294 464.003 670.749L458.586 669.524C429.761 661.332 406.586 650.364 382.969 631.537C387.748 626.899 391.652 622.037 396.77 617.029Z"/><path fill="#070C10" d="M314.39 531.66C315.301 532.513 318.05 540.904 318.612 542.574C330.622 578.323 351.571 606.839 380.587 631.009L377.333 634.244C349.064 610.919 324.619 576.06 313.053 541.085C312.398 539.102 310.685 535.002 310.813 533.128C312.063 531.795 312.199 532.154 314.39 531.66Z"/><path fill="#0F161D" d="M381.43 632.254C382.605 632.61 394.114 641.409 396.324 642.911C410.393 652.466 425.347 659.539 441.29 665.384C444.228 666.461 462.048 671.348 463.17 672.819C463.108 674.462 463.061 674.37 462.327 675.87C436.993 670.279 410.671 657.819 389.313 643.17C386.466 641.217 381.636 637.925 379.201 635.626C379.336 634.202 380.407 633.376 381.43 632.254Z"/><path fill="#142D35" d="M365.243 325.279L365.731 326.005C366.153 327.278 367.401 328.628 368.652 329.107L369.664 329.628C370.075 331.846 379.717 340.134 381.847 341.923C380.773 342.931 379.79 343.952 378.595 344.795C368.974 354.029 360.571 364.453 353.59 375.816C353.121 376.577 350.482 380.7 350.295 381.155C349.694 383.553 349.442 383.891 348.224 386.105C340.156 401.173 334.812 413.072 331.431 430.001C330.794 433.192 327.391 434.225 328.537 438.493C326.555 449.684 324.911 460.535 325.006 471.947C324.591 483.715 325.343 495.436 327.387 507.064C327.966 510.357 331.126 519.923 331.233 522.179C325.626 523.787 319.933 525.508 314.258 526.821L313.649 527.058C312.209 527.34 310.425 527.966 308.985 528.425C308.12 525.616 307.668 523.202 307.094 520.326L306.171 520.919C305.244 518.407 303.925 509.387 303.499 506.262C301.346 491.444 300.878 476.43 302.106 461.507C302.984 451.816 304.577 442.88 305.619 433.391C313.475 395.489 332.232 360.418 358.453 332.098C360.661 329.713 362.806 327.443 365.243 325.279Z"/><path fill="#0F161D" d="M366.671 332.822C370.733 336.725 374.709 340.717 378.595 344.795C368.974 354.029 360.571 364.453 353.59 375.816C353.121 376.577 350.482 380.7 350.295 381.155C349.247 382.248 350.069 381.31 349.366 382.304C338.781 397.281 331.104 414.098 328.483 432.71C323.847 432.357 317.856 430.992 313.016 430.324C319.965 394.988 341.459 358.282 366.671 332.822Z"/><path fill="#070C10" d="M311.757 434.51C317.403 435.922 322.831 436.932 328.537 438.493C326.555 449.684 324.911 460.535 325.006 471.947C324.591 483.715 325.343 495.436 327.387 507.064C327.966 510.357 331.126 519.923 331.233 522.179C325.626 523.787 319.933 525.508 314.258 526.821C305.637 490.218 306.468 471.599 311.757 434.51Z"/><path fill="#070C10" d="M305.619 433.391L306.564 433.935C308.946 434.284 309.559 433.907 310.79 435.262C306.589 461.937 304.464 484.992 310.045 511.781C310.805 515.43 312.351 524.038 313.649 527.058C312.209 527.34 310.425 527.966 308.985 528.425C308.12 525.616 307.668 523.202 307.094 520.326L306.171 520.919C305.244 518.407 303.925 509.387 303.499 506.262C301.346 491.444 300.878 476.43 302.106 461.507C302.984 451.816 304.577 442.88 305.619 433.391Z"/><path fill="#142D35" d="M305.619 433.391L306.564 433.935C302.493 463.317 299.803 490.845 307.094 520.326L306.171 520.919C305.244 518.407 303.925 509.387 303.499 506.262C301.346 491.444 300.878 476.43 302.106 461.507C302.984 451.816 304.577 442.88 305.619 433.391Z"/><path fill="#0F161D" d="M363.101 329.39C364.307 329.938 364.32 330.139 365.219 331.159C365.177 332.372 365.13 332.996 364.102 334.034C355.594 342.628 347.185 352.97 340.468 363.075C330.615 378.104 322.78 394.364 317.166 411.436C315.138 417.581 313.621 423.772 311.717 429.93L309.413 429.35C308.726 428.679 308.17 428.022 308.414 426.909C316.559 389.792 337.58 356.105 363.101 329.39Z"/><path fill="#1C4550" d="M348.224 386.105L349.827 387.404C352.281 387.219 352.552 382.703 356.76 379.446L357.739 380.082C356.804 381.626 349.865 393.232 349.808 393.977C349.125 402.959 343.268 410.824 341.064 419.057C338.583 428.326 337.194 437.764 333.116 446.787C332.098 449.04 332.181 453.914 330.635 455.311C330.995 458.045 330.764 459.336 330.505 462.049C330.704 464.288 331.027 465.859 330.024 467.934C330.135 470.545 330.225 472.083 329.943 474.728L330.074 475.899C330.121 478.234 330.28 478.978 329.565 481.136C328.103 480.172 326.602 474.816 325.006 471.947C324.911 460.535 326.555 449.684 328.537 438.493C327.391 434.225 330.794 433.192 331.431 430.001C334.812 413.072 340.156 401.173 348.224 386.105Z"/><path fill="#2CCBDB" d="M330.505 462.049C329.921 461.836 330.171 461.976 329.61 461.525C328.984 461.023 329.015 460.608 328.96 459.839C328.836 458.118 329.588 456.607 330.635 455.311C330.995 458.045 330.764 459.336 330.505 462.049Z"/><path fill="#2CCBDB" d="M330.024 467.934C330.135 470.545 330.225 472.083 329.943 474.728C328.06 472.631 328.579 470.073 330.024 467.934Z"/><path fill="#2CCBDB" d="M329.565 481.136C328.914 478.743 328.255 477.757 330.074 475.899C330.121 478.234 330.28 478.978 329.565 481.136Z"/><path fill="#2CCBDB" d="M344.842 400.781L345.66 401.742C345.231 403.76 344.212 406.147 343.438 408.065C339.565 417.661 336.196 427.092 334.266 437.297C333.881 439.334 333.292 441.288 332.436 443.202L331.896 442.697C331.144 437.231 341.745 407.095 344.842 400.781Z"/><path fill="#142D35" d="M621.959 332.805L622.476 333.151C625.632 335.288 631.606 341.056 634.136 340.582L635.135 339.848C636.023 340.093 636.409 340.143 637.325 340.052C646.945 342.602 678.266 387.535 681.384 398.915C681.361 399.722 681.263 401.339 681.315 402.073C680.845 402.377 679.587 403.019 679.107 402.464C677.346 400.426 674.843 396.313 674.474 393.712L675.536 392.718C674.167 391.838 672.233 390.982 671.862 389.285C670.895 384.866 657.954 367.869 654.537 363.545C653.229 361.889 651.467 360.426 650.265 358.74C649.341 357.444 650.039 356.346 650.352 354.942L649.472 354.408C648.438 354.676 647.998 354.72 646.93 354.838C645.956 354.264 645.845 354.234 645.302 353.228C640.366 344.086 627.23 341.809 621.959 332.805Z"/><path fill="#142D35" d="M325.006 471.947C326.602 474.816 328.103 480.172 329.565 481.136C330.28 478.978 330.121 478.234 330.074 475.899C330.784 477.391 331.412 494.501 331.489 497.457C331.682 504.895 340.106 532.047 339.03 536.618L337.985 536.741L338.547 537.51L338.913 537.137L338.544 537.606L337.603 536.322L336.463 536.958C335.222 533.497 334.056 530.275 333.022 526.747C332.448 525.012 331.965 523.859 331.233 522.179C331.126 519.923 327.966 510.357 327.387 507.064C325.343 495.436 324.591 483.715 325.006 471.947Z"/><path fill="#152B37" d="M681.384 398.915C684.704 406.157 687.127 411.873 689.623 419.437C690.528 422.176 693.508 432.429 694.417 434.232L693.668 434.441L693.091 435.591C692.951 435.53 688.768 421.759 687.87 419.869C686.609 419.268 686.64 419.326 685.654 418.354C685.255 416.893 685.338 416.956 685.658 415.447C686.688 415.664 686.195 415.489 687.136 415.974C685.427 413.16 683.407 413.584 683.592 410.947C683.856 407.175 683.974 405.313 681.315 402.073C681.263 401.339 681.361 399.722 681.384 398.915Z"/><path fill="#152B37" d="M693.091 435.591L694.745 437.014C695.613 440.272 696.148 442.956 696.771 446.272L695.816 447.143C694.964 442.843 694.193 439.804 693.091 435.591Z"/><path fill="#3699B0" d="M519.085 325.063C526.655 318.846 568.094 331.657 577.764 336.474C581.093 338.133 584.554 340.975 586.577 344.176C624.398 367.388 649.668 397.437 660.288 441.332C669.171 478.045 663.1 517.861 643.649 550.369C618.586 592.253 570.551 622.292 521.595 625.105C499.831 626.355 475.935 622.114 455.435 614.895C444.997 611.029 432.982 602.666 423.401 596.944C421.678 595.916 418.119 592.237 416.266 590.931C410.399 586.796 404.235 581.295 399.443 575.919C380.341 554.492 366.465 526.576 362.1 498.296C358.539 475.552 360.212 452.296 366.992 430.296C367.625 428.213 369.769 421.104 370.75 419.427C371.241 416.44 376.12 407.612 377.679 404.903C378.022 403.458 380.427 399.915 381.288 398.507C409.693 352.087 463.756 321.57 519.085 325.063Z"/><defs><linearGradient id="gradient_1" gradientUnits="userSpaceOnUse" x1="376.73706" y1="427.28619" x2="371.17151" y2="415.52054"><stop offset="0" stop-color="#23A4B9"/><stop offset="1" stop-color="#1CCED8"/></linearGradient></defs><path fill="url(#gradient_1)" d="M377.679 404.903C383.332 418.884 377.566 420.789 373.327 433.706C372.581 435.978 373.398 440.616 372.437 442.461C371.256 439.943 370.414 435.863 370.29 433.092L369.587 432.045L369.27 429.883C370.013 427.014 371.771 421.768 370.75 419.427C371.241 416.44 376.12 407.612 377.679 404.903Z"/><path fill="#152B37" d="M519.085 325.063C526.655 318.846 568.094 331.657 577.764 336.474C581.093 338.133 584.554 340.975 586.577 344.176C564.394 331.826 543.951 327.407 519.085 325.063Z"/><path fill="#2CCBDB" d="M369.27 429.883L369.587 432.045C368.329 438.75 368.114 446.248 367.991 453.096C367.863 460.246 369.521 468.156 364.929 474.432C364.162 475.48 363.557 476.337 362.321 476.525C360.365 471.845 366.452 436.072 369.27 429.883Z"/><path fill="#0F161D" d="M492.059 343.304C518.454 339.188 559.28 345.794 581.013 360.656C641.43 393.983 666.045 475.455 632.139 536.089C618.463 560.902 597.514 580.929 572.111 593.474C555.672 602.112 531.483 608.256 512.956 607.982C510.223 607.942 505.458 608.046 502.975 607.533C493.69 607.425 481.248 604.542 472.445 601.884C420.196 586.106 380.001 538.706 377.296 483.612C377.024 481.57 377.748 458.729 378.004 456.112C381.044 425.11 399.527 394.193 423.489 374.647C441.156 357.787 468.299 347.145 492.059 343.304Z"/><path fill="#152B37" d="M423.489 374.647L422.439 377.354C425.215 379.864 428.999 384.326 431.575 386.092L428.946 387.314C425.822 390.507 415.095 399.668 415.092 403.335L414.066 403.286C411.348 400.513 414.547 398.463 410.173 397.541L408.088 400.033C405.047 404.54 402.775 408.158 400.176 412.923C398.912 415.24 395.988 421.087 394.702 422.692C392.163 425.286 381.701 442.543 380.747 445.246C381.279 446.997 381.355 447.452 381.39 449.28C381.73 447.929 382.126 445.378 382.945 444.582C383.927 446.636 382.793 452.051 381.739 454.103C381.507 453.238 381.258 452.378 380.992 451.523C378.552 452.811 377.668 460.382 381.008 461.72C382.301 462.238 382.944 465.108 382.895 466.318C383.399 472.82 378.82 478.993 377.296 483.612C377.024 481.57 377.748 458.729 378.004 456.112C381.044 425.11 399.527 394.193 423.489 374.647Z"/><path fill="#1C4550" d="M409.147 396.459C410.883 391.676 414.65 381.507 420.585 379.551C424.772 378.171 425.329 385.162 428.946 387.314C425.822 390.507 415.095 399.668 415.092 403.335L414.066 403.286C411.348 400.513 414.547 398.463 410.173 397.541L408.088 400.033L407.146 399.581L409.147 396.459Z"/><path fill="#2CCBDB" d="M409.147 396.459C411.552 393.558 419.205 383.744 422.393 383.247C421.247 386.134 412.932 393.988 410.173 397.541L408.088 400.033L407.146 399.581L409.147 396.459Z"/><path fill="#27839C" d="M394.702 422.692C394.118 418.604 404.29 403.522 407.146 399.581L408.088 400.033C405.047 404.54 402.775 408.158 400.176 412.923C398.912 415.24 395.988 421.087 394.702 422.692Z"/><path fill="#1C4550" d="M492.059 343.304C518.454 339.188 559.28 345.794 581.013 360.656C572.7 357.959 566.557 360.164 559.631 357.585C547.028 352.892 533.788 352.089 520.886 349.147L521.257 350.022L520.881 350.532C510.016 351.098 506.787 351.591 496.313 345.625C494.866 344.801 494.579 344.423 492.952 343.697L492.059 343.304Z"/><path fill="#142D35" d="M502.975 607.533C506.035 607.362 510.265 607.11 513.154 606.201L512.928 604.992C518.291 602.248 526.318 604.712 530.695 603.115L530.625 602.478C528.908 602.359 526.102 602.305 524.574 601.743C529.616 601.32 533.316 601.706 537.779 598.938C544.743 594.62 550.804 593.477 558.832 593.115L556.753 594.572L556.979 595.229C559.542 595.471 559.322 595.227 561.347 596.104C564.37 597.413 566.658 593.035 572.111 593.474C555.672 602.112 531.483 608.256 512.956 607.982C510.223 607.942 505.458 608.046 502.975 607.533Z"/><path fill="#2CCBDB" d="M431.575 386.092C431.254 387.34 417.086 401.884 415.092 403.335C415.095 399.668 425.822 390.507 428.946 387.314L431.575 386.092Z"/><path fill="#070C10" d="M510.911 397.234C528.225 397.023 545.112 402.617 558.876 413.123C559.067 413.269 559.257 413.416 559.447 413.563C583.195 432.042 594.1 462.596 587.42 491.935C578.465 531.261 540.846 557.145 500.918 551.454C460.989 545.763 432.1 510.399 434.489 470.138C436.878 429.876 469.747 398.177 510.069 397.248C510.349 397.242 510.63 397.237 510.911 397.234Z"/><path fill="#21657C" d="M587.42 491.935C591.57 491.724 598.977 494.484 603.684 494.473C605.786 490.759 604.933 481.707 606.605 479.167C608.643 480.77 605.736 492.234 605.317 494.807C613.126 495.503 622.644 497.669 630.852 498.809L631.117 500.055L630.542 500.861C628.809 501.082 623.886 498.859 621.272 498.802C620.144 498.778 616.6 497.854 615.357 497.544L614.055 497.215C612.065 499.049 608.029 517.274 605.336 517.491C605.171 515.187 606.391 513.439 607.368 511.489C609.418 507.4 611.243 501.248 612.434 496.821C610.029 496.426 607.652 495.98 605.223 495.802C604.609 497.943 604.004 500.755 602.811 502.535L602.273 502.154C602.639 500.16 603.532 497.185 603.225 495.49C600.109 494.223 590.39 494.148 587.42 491.935Z"/><path fill="#21657C" d="M441.406 550.865C444.792 551.566 455.544 560.529 461.181 563.255C468.158 566.706 475.389 569.618 482.811 571.963C485.937 572.976 492.108 574.519 494.537 575.53L495.301 575.857C495.093 575.88 494.319 575.978 494.154 575.955C477.5 573.541 452.803 561.967 441.406 550.865Z"/><path fill="#27839C" d="M389.738 440.397C390.821 442.096 388.195 450.692 387.479 453.257C384.92 462.422 386.414 473.558 385.139 481.751L384.348 480.963C382.558 473.05 385.954 447.778 389.738 440.397Z"/><path fill="#21657C" d="M587.482 405.908C595.213 408.818 610.931 439.921 611.625 448.178C610.223 447.156 602.845 428.106 600.825 424.429C597.252 417.924 591.854 412.917 587.993 406.742L587.482 405.908Z"/><path fill="#21657C" d="M617.682 509.306C620.006 516.231 602.253 542.914 596.468 548.246L596.316 547.655C596.597 546.914 596.659 546.696 597.222 546.099C606.876 535.863 612.771 522.334 617.682 509.306Z"/><path fill="#27839C" d="M610.766 554.922L611.189 555.536C609.895 558.875 595.265 573.649 591.781 575.736L590.956 573.954C591.324 572.479 593.415 571.257 594.725 570.221C600.63 565.552 606.071 560.842 610.766 554.922Z"/><path fill="#21657C" d="M504.585 356.762C506.779 356.597 508.978 356.51 511.179 356.5C515.796 356.501 536.304 356.936 538.823 359.449L538.122 359.793C531.486 358.768 524.795 358.138 518.085 357.909C515.53 357.842 504.631 358.392 503.358 357.298L504.585 356.762Z"/><path fill="#21657C" d="M489.358 583.634C493.304 583.458 499.619 584.711 503.932 584.844C507.115 584.943 520.543 584.501 522.153 585.764C520.448 585.95 518.74 586.098 517.028 586.208C512.202 586.493 492.514 586.469 489.358 583.634Z"/><path fill="#21657C" d="M484.256 376.985C485.143 376.892 484.947 376.94 485.855 377.122C484.911 378.437 479.13 379.997 477.138 380.691C470.474 383.013 464.731 385.69 458.788 389.49L458.381 389.816L457.804 389.533C460.137 385.081 478.896 378.776 484.256 376.985Z"/><path fill="#21657C" d="M452.832 381.055L452.84 381.39C452.198 382.935 441.341 389.987 439.106 392.229C438.063 393.276 432.244 398.31 431 399.279L430.926 398.454C434.027 393.795 447.487 383.872 452.832 381.055Z"/><path fill="#27839C" d="M391.982 470.745C393.238 471.686 394.484 493.71 394.474 497.168L393.79 496.511C392.159 491.048 391.806 476.697 391.982 470.745Z"/><path fill="#21657C" d="M434.72 556.541C436.199 556.968 455.261 570.116 456.619 571.578C452.908 571.064 437.081 560.154 434.72 556.541Z"/><path fill="#21657C" d="M641.056 465.132L641.798 465.436C643.459 467.841 642.684 480.204 642.527 483.316L641.652 483.257C640.502 481.219 641.022 468.251 641.056 465.132Z"/><path fill="#21657C" d="M417.382 415.874C417.741 417.763 413.671 423.834 412.58 425.981C410.333 430.401 408.645 434.889 406.514 439.316C405.441 435.367 414.292 419.484 417.382 415.874Z"/><path fill="#21657C" d="M607.759 546.413L608.204 547.087C606.088 551.71 597.519 559.817 593.054 562.496L592.798 561.85C594.034 560.123 597.806 557.783 599.498 555.952C602.362 552.853 604.987 549.584 607.759 546.413Z"/><path fill="#21657C" d="M403.01 495.837C404.264 496.721 409.754 516.007 410.571 518.69C407.38 516.437 403.663 500.206 403.01 495.837Z"/><path fill="#3699B0" d="M454.828 358.445C456.31 358.508 455.682 358.216 456.821 359.142C456.1 361.22 450.968 363.394 448.794 364.515C447.495 364.456 448.029 364.699 447.15 363.886L447.391 362.875C449.729 360.991 452.174 359.851 454.828 358.445Z"/><path fill="#21657C" d="M582.374 535.905C582.728 536.25 582.527 535.998 582.763 536.791C579.059 541.541 570.346 548.527 565.328 552.082L564.845 551.704C564.956 551.51 579.943 538.367 582.374 535.905Z"/><path fill="#21657C" d="M417.631 468.801C418.467 470.64 419.478 488.246 419.324 490.886C417.411 487.943 416.359 472.449 417.631 468.801Z"/><path fill="#21657C" d="M483.016 368.083L483.697 368.307C483.206 368.87 466.297 375.375 463.758 376.475C463.398 376.383 463.621 376.481 463.267 375.934C465.01 373.716 479.703 369.011 483.016 368.083Z"/><path fill="#21657C" d="M465.829 365.538C465.919 366.099 465.893 365.724 465.695 366.66C458.92 369.7 453.364 372.151 446.884 375.767L446.951 374.755C449.636 372.214 461.974 366.861 465.829 365.538Z"/><path fill="#1C4550" d="M510.069 397.248C509.975 393.295 510.419 384.137 508.703 381.587C509.919 379.487 514.573 380.024 516.641 380.696L517.057 381.365C515.498 382.906 512.84 380.891 510.382 382.355C510.563 387.393 510.954 392.184 510.911 397.234C510.63 397.237 510.349 397.242 510.069 397.248Z"/><path fill="#27839C" d="M606.363 401.724C609.924 402.683 616.738 414.268 618.481 417.767L617.856 417.709C616.841 417.154 607.768 403.805 606.363 401.724Z"/><path fill="#21657C" d="M421.72 442.84C421.903 443.141 422.086 443.443 422.269 443.744C421.209 447.621 418.981 461.349 418.303 464.122L417.78 463.511C417.355 458.481 420.271 447.766 421.72 442.84Z"/><path fill="#21657C" d="M625.704 511.344C626.802 514.675 619.593 528.215 617.505 531.493C617.032 529.077 621.336 522.052 622.407 519.153C623.281 516.79 624.71 513.743 625.704 511.344Z"/><path fill="#21657C" d="M552.794 363.01C556.502 363.208 568.653 368.809 571.369 371.53C568.337 371.369 555.954 364.824 552.794 363.01Z"/><path fill="#2CCBDB" d="M447.552 574.425C449.795 574.481 457.604 579.204 459.042 581C456.171 582.101 448.479 577.033 447.552 574.425Z"/><path fill="#21657C" d="M461.597 574.55C464.704 574.555 479.413 580.269 482.437 582.013C479.022 581.827 464.313 576.646 461.597 574.55Z"/><path fill="#21657C" d="M418.184 430.764L418.804 431.408C418.655 432.954 413.111 446.543 412.091 449.336L411.564 449.08C411.288 446.587 416.941 433.802 418.184 430.764Z"/><path fill="#21657C" d="M594.75 401.852C597.752 402.827 605.589 413.43 606.597 416.577C604.499 415.367 596.297 404.319 594.75 401.852Z"/><path fill="#2CCBDB" d="M636.866 439.739C639.311 441.864 640.251 449.686 640.847 453.259L640.038 453.261C638.262 451.176 636.863 442.603 636.866 439.739Z"/><path fill="#21657C" d="M407.273 414.841L407.73 415.316C407.666 416.664 401.172 429.363 400.062 431.67L399.667 431.532C399.417 428.885 405.607 417.512 407.273 414.841Z"/><path fill="#27839C" d="M395.992 503.364C397.241 504.504 401.683 518.798 402.143 521.133C399.512 518.95 396.076 506.913 395.992 503.364Z"/><path fill="#21657C" d="M615.172 472.303L615.659 472.698C616.786 474.883 615.677 486.057 615.014 488.698C613.485 486.573 614.893 475.682 615.172 472.303Z"/><path fill="#1C4550" d="M400.49 468.616L401.421 469.056C402.671 470.959 401.586 478.079 401.313 480.686C399.122 478.952 400.055 471.211 400.49 468.616Z"/><path fill="#21657C" d="M558.571 394.452C561.675 394.517 571.046 400.931 572.741 403.535C570.928 403.219 560.013 395.971 558.571 394.452Z"/><path fill="#21657C" d="M445.72 541.934C448.71 542.721 457.243 550.221 459.509 552.644C456.308 551.878 447.732 544.447 445.72 541.934Z"/><path fill="#21657C" d="M408.94 480.238L409.561 480.668C410.554 482.496 411.652 492.432 412.033 495.241C409.78 493.667 409.179 483.302 408.94 480.238Z"/><path fill="#1C4550" d="M587.524 557.388C587.939 557.54 587.702 557.406 588.108 557.959C586.572 559.796 580.328 564.406 578.128 566.113C577.839 566.045 578.058 566.126 577.31 565.646C578.812 563.517 585.089 559.154 587.524 557.388Z"/><path fill="#142D35" d="M558.876 413.123C560.142 410.187 563.364 403.489 565.352 401.236C564.889 404.201 561.247 411.568 559.447 413.563C559.257 413.416 559.067 413.269 558.876 413.123Z"/><path fill="#21657C" d="M612.026 426.429C613.952 428.668 617.233 437.002 617.49 440.089C615.798 438.925 612.142 428.626 612.026 426.429Z"/><path fill="#21657C" d="M467.003 585.039C470.221 585.618 478.848 587.871 481.215 589.916C477.405 589.443 470.008 587.495 467.003 585.039Z"/><path fill="#21657C" d="M395.248 447.914L395.505 448.182C396.055 449.452 393.618 458.986 393.164 461.201L392.662 460.8C391.875 458.62 394.347 450.22 395.248 447.914Z"/><path fill="#21657C" d="M604.807 453.225C606.702 455.508 607.102 463.736 606.807 466.697C605.638 464.596 604.596 455.797 604.807 453.225Z"/><path fill="#21657C" d="M531.835 574.084C532.708 573.938 532.246 573.914 533.211 574.263L532.845 574.801C529.395 575.738 526.124 576.254 522.607 576.865L521.302 577.04L521.006 576.545C523.4 575.585 529.047 574.633 531.835 574.084Z"/><path fill="#3699B0" d="M638.688 497.71L639.527 498.571C639.78 501.639 638.837 504.781 637.989 507.72L637.147 506.703C637.228 503.708 638.045 500.663 638.688 497.71Z"/><path fill="#21657C" d="M410.211 458.842C411.025 461.972 410.206 468.209 409.732 471.47C408.008 468.187 409.319 462.351 410.211 458.842Z"/><path fill="#21657C" d="M403.438 448.724C403.712 448.947 404.078 449.469 404.317 449.773C404.1 452.786 402.945 456.699 402.169 459.716L401.771 459.549C401.259 457.506 402.828 450.947 403.438 448.724Z"/><path fill="#27839C" d="M427.653 414.348C428.316 416.626 423.873 422.424 422.521 424.365L422.327 423.415C423.565 420.14 425.51 417.104 427.653 414.348Z"/><path fill="#21657C" d="M493.384 566.675C496.561 566.824 500.723 567.01 503.741 567.945L504.131 568.789C501.007 568.53 495.174 568.672 493.384 566.675Z"/><path fill="#3699B0" d="M432.547 563.846C435.659 564.161 438.106 566.669 439.202 569.48C436.037 567.846 434.494 566.843 432.547 563.846Z"/><path fill="#21657C" d="M489.632 358.624C491.124 358.457 490.708 358.206 491.622 358.774C489.441 359.907 486.535 360.494 484.104 361.122C483.48 361.25 483.193 361.175 482.538 361.145L482.646 360.572C485.502 359.29 486.633 359.163 489.632 358.624Z"/><path fill="#21657C" d="M623.613 475.267L624.303 475.922C624.89 478.767 624.444 481.346 623.877 484.162L623.101 483.212C622.755 480.358 623.228 478.114 623.613 475.267Z"/><path fill="#21657C" d="M506.092 381.749L507.129 381.745L507.054 382.263C504.174 383.144 502.823 383.044 499.876 383.081L499.079 382.991L498.719 382.464C500.576 381.855 504.013 381.849 506.092 381.749Z"/><path fill="#21657C" d="M572.624 382.448C575.207 382.579 578.913 385.492 580.336 387.58C577.814 386.945 574.463 384.256 572.624 382.448Z"/><path fill="#21657C" d="M411.949 497.818C413.639 499.047 414.518 504.359 415.053 506.633C412.791 504.974 412.45 500.649 411.949 497.818Z"/><path fill="#21657C" d="M586.446 541.91L586.879 542.527C585.494 544.547 583.558 545.962 581.668 547.559L581.187 546.953C582.054 545.301 584.893 543.21 586.446 541.91Z"/><path fill="#21657C" d="M555.722 566.516L556.077 566.611L556.226 567.201C554.377 568.785 552.854 569.253 550.62 570.198L549.801 569.807C550.78 568.542 554.095 567.269 555.722 566.516Z"/><path fill="#27839C" d="M425.64 528.902C428.04 530.66 429.479 533.092 430.101 535.964C428.386 534.005 426.13 531.443 425.64 528.902Z"/><path fill="#21657C" d="M538.024 564.061L538.481 564.536C537.35 565.738 534.404 566.543 532.707 567.149L532.361 566.438C533.935 565.108 536 564.694 538.024 564.061Z"/><path fill="#21657C" d="M452.923 392.058C452.207 394.381 449.58 395.77 447.51 397.117C447.533 396.76 447.556 396.404 447.579 396.047C449.488 393.959 450.528 393.499 452.923 392.058Z"/><path fill="#21657C" d="M454.749 399.989L454.713 401.047C453.018 403.17 451.675 403.961 449.489 405.497C449.771 403.471 453.025 401.364 454.749 399.989Z"/><path fill="#27839C" d="M419.279 533.84C421.656 535.093 422.557 537.195 423.273 539.646C421.476 538.645 420.104 535.671 419.279 533.84Z"/><path fill="#21657C" d="M415.815 510.31C417.794 511.579 418.318 514.359 419.077 516.678C417.152 515.674 416.426 512.307 415.815 510.31Z"/><path fill="#21657C" d="M572.112 393.044L572.479 392.867C574.032 393.375 574.374 393.879 575.538 395.001L574.752 395.199C573.365 394.963 573.309 394.735 572.146 393.864L572.112 393.044Z"/><path fill="#152B37" d="M558.094 601.137C563.567 599.336 570.37 595.89 575.472 593.142C602.123 579.019 623.601 556.8 636.813 529.686C651.591 499.114 652.017 462.152 640.756 430.346C632.367 406.985 617.643 386.419 598.231 370.95C594.363 367.863 579.449 358.439 578.271 356.044C581.431 353.849 590.26 360.338 592.94 362.219C610.446 374.47 624.979 390.494 635.467 409.109C652.769 439.177 656.731 477.299 647.649 510.654C638.43 544.51 613.07 576.155 582.699 593.447C575.543 597.522 569.013 599.961 561.789 603.46C560.574 602.625 559.35 601.904 558.094 601.137Z"/><path fill="#152B37" d="M645.333 427.577C637.211 409.769 631.527 398.116 618.095 383.157C611.854 376.204 604.93 369.897 597.427 364.33C596.214 363.447 588.822 358.326 588.492 357.633C590.416 356.698 594.203 358.277 595.821 359.47C597.728 360.876 601.9 360.376 603.51 361.798C609.669 367.236 615.89 372.822 621.912 378.41C625.006 381.28 627.353 384.365 630.669 387.107L630.607 386.899C639.022 394.719 642.508 403.087 647.161 413.43C648.483 416.369 650.064 417.67 650.991 421.011C657.62 444.889 660.913 468.615 654.478 492.939C653.71 495.839 653.769 500.416 652.935 503.294C650.183 512.798 644.419 533.191 638.29 540.58L637.681 540.434C637.874 536.5 649.535 514.412 650.009 506.471C650.456 498.954 654.434 485.682 653.904 477.012C653.741 474.334 653.275 470.677 653.57 468.319C652.079 451.711 649.979 443.35 645.333 427.577Z"/><path fill="#142D35" d="M645.333 427.577L646.111 427.524C647.65 432.758 651.096 438.079 651.367 443.22C651.705 449.647 655.271 462.886 653.57 468.319C652.079 451.711 649.979 443.35 645.333 427.577Z"/><path fill="#152B37" d="M483.383 333.751C485.448 332.611 492.843 334.287 493.731 336.747C487.897 338.867 475.151 340.142 467.059 343.011C434.51 354.548 411.842 372.111 392.545 400.277C391.729 401.705 390.197 404.235 388.515 404.444C388.09 402.744 388.295 402.271 388.411 400.484C387.72 400.764 388.123 400.655 387.179 400.72C386.839 398.252 390.863 393.173 392.423 390.938C402.195 376.941 415.428 364.547 429.162 354.473C433.051 352.337 437.872 348.605 441.806 346.83C447.735 344.155 453.135 342.683 459.046 339.41C465.288 335.952 476.269 333.65 483.383 333.751Z"/><defs><linearGradient id="gradient_2" gradientUnits="userSpaceOnUse" x1="478.14658" y1="607.46326" x2="484.07257" y2="585.02881"><stop offset="0" stop-color="#152F38"/><stop offset="1" stop-color="#277891"/></linearGradient></defs><path fill="url(#gradient_2)" d="M419.01 577.836C417.907 575.522 412.801 570.664 412.993 568.815C413.866 569.133 414.689 569.463 415.551 569.81L416.326 570.392C419.147 572.541 421.863 575.301 424.644 577.605C452.82 600.944 491.992 612.825 528.444 608.397C535.248 607.554 541.97 606.147 548.541 604.193C549.729 603.842 557.66 601.198 558.094 601.137C559.35 601.904 560.574 602.625 561.789 603.46C544.615 609.207 534.916 611.933 516.489 612.684C481.626 614.105 444.916 600.905 419.01 577.836Z"/><defs><linearGradient id="gradient_3" gradientUnits="userSpaceOnUse" x1="437.44321" y1="358.86313" x2="448.14648" y2="375.27457"><stop offset="0" stop-color="#0F1A27"/><stop offset="1" stop-color="#183847"/></linearGradient></defs><path fill="url(#gradient_3)" d="M387.851 410.089C391.31 403.516 396.314 396.473 400.958 390.706C425.409 360.338 457.94 342.143 496.833 337.967C498.313 338.029 500.581 338.119 502.149 338.227C503.064 338.29 502.035 339.766 503.291 338.912L502.854 338.351L503.377 338.824C501.62 340.086 500.91 340.086 498.731 340.584L498.582 341.263C450.7 347.744 416.207 370.177 391.379 411.605C390.039 410.664 389.389 410.561 387.851 410.089Z"/><path fill="#1C4550" d="M369.991 485.245C371.49 486.888 372.956 500.324 374.005 504.481C376.3 513.584 378.088 520.496 381.655 529.103C383.339 533.164 392.193 548.02 392.596 550.712L391.481 551.543C391.051 551.436 388.166 550.699 387.834 550.486C380.61 545.847 375.814 533.705 372.845 526.575C368.802 516.864 366.394 501.844 367.778 491.552C367.981 490.045 369.39 486.694 369.991 485.245Z"/><defs><linearGradient id="gradient_4" gradientUnits="userSpaceOnUse" x1="613.29724" y1="576.92603" x2="606.41571" y2="568.42529"><stop offset="0" stop-color="#132630"/><stop offset="1" stop-color="#103C4E"/></linearGradient></defs><path fill="url(#gradient_4)" d="M633.285 545.713L634.168 546.567C634.528 549.768 631.228 551.851 629.999 554.494C624.952 565.357 623.154 569.707 613.97 577.424C603.306 586.383 598.084 592.174 584.187 595.801C583.355 595.735 583.83 595.851 582.839 595.219C582.949 594.857 598.833 583.927 600.825 582.325C614.079 571.667 624.037 559.942 633.285 545.713Z"/><defs><linearGradient id="gradient_5" gradientUnits="userSpaceOnUse" x1="378.40524" y1="515.10559" x2="386.22781" y2="512.16156"><stop offset="0" stop-color="#112430"/><stop offset="1" stop-color="#244753"/></linearGradient></defs><path fill="url(#gradient_5)" d="M375.375 476.148C377.238 504.98 382.196 523.698 397.828 548.427C395.673 548.497 394.645 547.871 392.583 547.048C379.842 527.86 373.407 504.593 371.948 481.768C372.064 480.528 372.198 479.29 372.35 478.053C373.643 476.414 373.14 476.939 375.375 476.148Z"/><defs><linearGradient id="gradient_6" gradientUnits="userSpaceOnUse" x1="539.24377" y1="346.76538" x2="540.53296" y2="340.39914"><stop offset="0" stop-color="#215360"/><stop offset="1" stop-color="#248C9F"/></linearGradient></defs><path fill="url(#gradient_6)" d="M496.833 337.967C518.262 333.764 553.837 340.782 573.517 351.174C574.068 351.465 574.513 352.23 574.8 352.778L574.767 353.742C572.325 355.62 568.516 352.761 566.049 351.698C546.074 343.086 520.289 338.937 498.582 341.263L498.731 340.584C500.91 340.086 501.62 340.086 503.377 338.824L502.854 338.351L503.291 338.912C502.035 339.766 503.064 338.29 502.149 338.227C500.581 338.119 498.313 338.029 496.833 337.967Z"/><path fill="#21657C" d="M387.851 410.089C389.389 410.561 390.039 410.664 391.379 411.605C383.285 425.122 380.233 436.028 377.549 451.706C376.904 455.478 376.563 460.873 375.925 464.187C374.874 463.817 374.922 463.829 374.039 463.143C373.483 460.947 373.561 454.015 373.527 451.468C375.791 438.147 380.615 421.658 387.851 410.089Z"/><path fill="#2CCBDB" d="M386.046 557.009C388.968 558.42 393.094 557.141 396.015 558.872C400.966 561.805 404.319 572.148 407.432 576.496C409.908 579.955 415.735 585.668 418.745 588.75C416.054 588.117 403.831 575.868 400.892 573.28C398.845 571.477 395.383 566.41 393.025 564.094C391.054 562.159 387.768 559.104 386.046 557.009Z"/><path fill="#27839C" d="M494.018 327.239C502.532 326.506 507.668 329.236 515.627 331.278C519.378 332.24 522.768 332.563 526.372 333.282L525.884 333.572C524.727 333.897 523.658 334.093 522.66 334.705C519.463 336.664 510.224 336.038 505.791 336.075C504.476 334.632 503.632 333.69 502.084 332.456C499.738 330.584 495.43 329.462 494.018 327.239Z"/><path fill="#21657C" d="M392.583 547.048C394.645 547.871 395.673 548.497 397.828 548.427C404.736 557.634 408.12 561.309 415.551 569.81C414.689 569.463 413.866 569.133 412.993 568.815C412.801 570.664 417.907 575.522 419.01 577.836C410.443 570.483 398.219 556.843 392.583 547.048Z"/><path fill="#27839C" d="M373.527 451.468C373.561 454.015 373.483 460.947 374.039 463.143C374.922 463.829 374.874 463.817 375.925 464.187C375.629 468.346 375.372 471.987 375.375 476.148C373.14 476.939 373.643 476.414 372.35 478.053C372.198 479.29 372.064 480.528 371.948 481.768C370.921 476.032 372.322 457.433 373.527 451.468Z"/><path fill="#27839C" d="M538.401 311.106C544.96 310.772 579.647 320.211 582.64 324.864C573.929 322.296 565.289 317.606 555.462 315.726C552.298 315.12 539.934 312.674 538.401 311.106Z"/><path fill="#27839C" d="M502.714 308.25L504.184 308.254L504.313 308.686C502.049 310.067 495.211 310.203 492.272 310.543C484.469 311.445 476.819 313.179 469.176 314.927C467.93 315.02 468.516 315.143 467.416 314.566C470.507 311.98 497.127 308.647 502.714 308.25Z"/><path fill="#27839C" d="M433.379 619.443C434.951 619.703 446.886 625.396 450.211 626.714C453.937 628.191 465.227 631.385 467.463 632.925C461.409 633.193 437.631 623.919 433.379 619.443Z"/><path fill="#21657C" d="M680.607 468.262L681.275 468.792C682.79 472.722 681.298 490.872 680.538 495.778C680.182 495.792 679.841 495.627 679.496 495.534C679.364 493.463 679.987 488.656 680.118 486.254C680.406 480.26 680.569 474.262 680.607 468.262Z"/><path fill="#21657C" d="M585.622 623.006L586.051 623.124L585.985 623.61C580.613 626.912 564.563 632.066 558.403 633.989L558.049 633.912L557.82 633.429C558.58 632.854 582.568 624.186 585.622 623.006Z"/><path fill="#27839C" d="M355.244 416.338C355.677 417.653 354.332 421.438 353.71 422.782C350.465 429.787 349.747 439.379 347.167 446.11C345.807 442.198 352.436 420.177 355.244 416.338Z"/><path fill="#27839C" d="M610.733 340.861C615.181 341.753 628.018 352.606 630.509 356.202C628.187 355.761 612.9 343.126 610.733 340.861Z"/><path fill="#27839C" d="M368.896 386.809L369.383 387.303C369.343 388.228 358.966 408.012 357.553 410.889C357.154 410.636 357.409 410.84 357.03 410.061C358.253 405.442 366.176 391.179 368.896 386.809Z"/><path fill="#27839C" d="M672.472 423.259C674.908 424.08 677.876 436.007 678.067 438.639C676.316 437.173 673.194 425.992 672.472 423.259Z"/><path fill="#27839C" d="M589.14 327.92C592.71 328.101 600.956 332.86 603.193 335.518C600.731 335.283 591.391 329.539 589.14 327.92Z"/><path fill="#27839C" d="M344.781 454.259L345.551 455.067C345.708 458.925 344.989 464.372 344.381 468.245C344.125 468.031 343.785 467.529 343.563 467.238C343.384 463.265 344.073 458.184 344.781 454.259Z"/><path fill="#21657C" d="M413.777 607.506C416.43 608.46 424.292 613.706 426.033 616.04C423.052 615.181 415.084 610.396 413.777 607.506Z"/><path fill="#27839C" d="M343.461 476.626L344.506 477.587C344.762 480.7 344.826 485.664 343.928 488.64L343.196 487.687C342.745 484.007 342.835 480.28 343.461 476.626Z"/><path fill="#21657C" d="M657.609 556.826L657.877 557.666C657.43 560.333 653.651 565.018 651.958 567.237L651.734 566.213C652.733 563.655 655.936 559.118 657.609 556.826Z"/><path fill="#27839C" d="M516.096 308.673C518.563 308.574 525.681 308.603 527.644 309.857C524.77 310.013 519.174 310.471 516.536 309.662L516.096 308.673Z"/><path fill="#27839C" d="M665.65 541.779L666.259 542.416C665.852 544.737 663.179 549.075 661.887 551.132L661.366 550.686C661.993 548.231 664.369 544.171 665.65 541.779Z"/><path fill="#27839C" d="M458.032 317.007C458.46 317.35 458.292 317.11 458.376 317.818C456.782 319.038 453.099 320.234 451.073 320.999C450.712 320.717 450.911 320.93 450.7 320.207C452.448 318.839 455.831 317.818 458.032 317.007Z"/><path fill="#21657C" d="M375.226 375.379C375.302 378.185 373.583 379.895 371.746 382.123C371.283 379.832 373.821 377.018 375.226 375.379Z"/><path fill="#3699B0" d="M529.811 296.182C532.565 295.746 533.83 295.612 536.335 296.792C533.53 297.368 532.383 297.389 529.811 296.182Z"/><path fill="#3699B0" d="M517.129 295.232C518.996 294.906 520.122 294.333 521.486 295.714C519.638 296.371 518.771 295.944 517.129 295.232Z"/><path fill="#B6D8E3" d="M487.474 736.216C496.024 736.085 519.074 732.661 517.098 745.784C516.395 750.453 515.987 750.421 512.62 753.097C513.292 753.594 515.647 754.796 515.917 755.078C517.777 757.021 517.202 766.107 515.952 767.919C514.366 768.597 515.143 768.57 513.545 768.066C512.114 766.556 512.554 767.14 512.395 764.524C512.434 757.753 512.626 754.52 503.814 754.882C499.808 755.046 495.789 755.225 491.774 755.287C491.684 759.309 492.793 764.182 491.055 767.292C489.397 768.231 490.291 767.975 488.227 767.877C486.816 765.68 487.459 740.518 487.474 736.216Z"/><path fill="#070C10" d="M491.635 740.216C499.896 740.153 517.375 736.642 511.075 750.481C506.884 752.018 496.535 751.482 491.562 751.414L491.635 740.216Z"/><path fill="#B6D8E3" d="M458.017 736.034L464.275 736.09C467.026 742.303 469.849 748.484 472.743 754.632C474.125 757.551 477.911 765.09 478.623 767.71L477.889 768.152C472.249 768.364 471.977 764.034 469.838 759.087L464.503 759.055L451.848 759.097C450.559 761.905 449.147 765.928 446.881 767.717C445.153 767.988 444.891 767.857 443.188 767.616C443.456 765.782 456.169 739.661 458.017 736.034Z"/><path fill="#070C10" d="M460.66 739.424C463.043 742.131 466.682 751.65 468.222 755.429L462.198 755.4L453.83 755.382L460.66 739.424Z"/><path fill="#B6D8E3" d="M594.561 735.722C600.424 735.576 607.381 735.417 612.051 739.629C613.872 741.271 613.649 744.175 611.949 745.776C610.481 745.954 609.937 746.22 608.695 745.503L607.966 742.731C605.7 739.903 601.362 739.858 597.995 739.82C592.847 739.761 589.988 739.567 588.352 745.074C590.366 753.744 613.657 745.047 614.188 757.504C614.586 766.848 610.419 768.433 601.996 768.598C594.353 768.669 582.684 769.499 584.652 758.153C585.611 756.923 585.01 757.247 586.442 757.025C590.157 758.57 587.114 758.326 589.541 762.839C593.717 765.913 612.803 766.953 609.279 757.556C605.996 750.17 585.613 758.032 584.559 747.657C583.704 739.253 587.096 736.391 594.561 735.722Z"/><path fill="#B6D8E3" d="M541.727 764.611C544.153 759.553 551.829 738.078 554.596 736.033C556.299 736.087 557.165 735.775 558.185 736.626L557.731 738.12C553.749 747.93 548.915 758.505 544.676 768.288L538.865 768.042C534.07 757.482 529.888 746.793 525.473 736.071C527.218 736.05 527.853 736.091 529.593 736.289C531.913 737.587 538.969 759.048 541.355 763.869L541.727 764.611Z"/><path fill="#B6D8E3" d="M430.352 735.978C432.075 735.935 433.528 735.72 434.731 736.722C435.488 743.209 434.655 750.165 434.711 756.749C434.782 765.083 432.733 768.306 423.783 768.438C417.583 768.529 413.526 769.56 409.138 764.258C408.39 761.592 407.899 757.739 409.711 755.465L410.913 755.513C415.185 758.253 412.568 759.381 414.042 762.755C415.216 765.443 428.063 765.126 428.936 762.875C431.471 756.335 430.271 743.168 430.352 735.978Z"/><path fill="#B6D8E3" d="M567.408 736.119C568.919 736.091 569.885 735.906 571.197 736.629C571.75 738.648 571.453 764.429 571.44 768.139C569.87 768.146 568.868 768.317 567.498 767.572C566.869 762.602 567.327 742.142 567.408 736.119Z"/></svg>